<svg width="75" height="76" viewBox="0 0 75 76" fill="none" xmlns="http://www.w3.org/2000/svg">
<g clip-path="url(#clip0_102_57)">
<path d="M57.4218 47.9494C56.8546 47.4135 56.1288 47.0758 55.3534 46.987C54.578 46.8983 53.7948 47.0633 53.1211 47.4572L51.9492 42.6994V42.594V42.5002C51.8918 42.374 51.8124 42.2589 51.7148 42.1604L50.0625 40.508C49.7359 40.1803 49.3478 39.9202 48.9204 39.7428C48.4931 39.5653 48.0349 39.474 47.5722 39.474C47.1095 39.474 46.6514 39.5653 46.224 39.7428C45.7967 39.9202 45.4086 40.1803 45.082 40.508L44.25 39.6643L59.7656 23.9963C59.902 23.8612 60.0696 23.7617 60.2535 23.7065C60.4374 23.6513 60.632 23.6422 60.8203 23.6799C62.6059 24.0646 64.4573 24.0204 66.2226 23.551C68.2247 23.0113 70.0501 21.9555 71.5164 20.4893C72.9826 19.023 74.0384 17.1976 74.5781 15.1955C74.9507 13.8022 75.058 12.3512 74.8945 10.9182C74.8445 10.4774 74.6704 10.0598 74.3924 9.71399C74.1145 9.3682 73.7441 9.1084 73.3243 8.96479C72.9046 8.82119 72.4527 8.79967 72.0211 8.90275C71.5896 9.00583 71.1962 9.22927 70.8867 9.54709L67.6289 12.8752C67.5199 12.9851 67.3903 13.0722 67.2475 13.1317C67.1047 13.1912 66.9515 13.2219 66.7968 13.2219C66.6421 13.2219 66.489 13.1912 66.3462 13.1317C66.2034 13.0722 66.0738 12.9851 65.9648 12.8752L62.6836 9.55881C62.5721 9.44654 62.4845 9.31286 62.4261 9.16584C62.3677 9.01882 62.3397 8.86149 62.3437 8.70334C62.3428 8.54632 62.3735 8.39072 62.4338 8.24578C62.4942 8.10083 62.5831 7.9695 62.6953 7.85959L65.9648 4.53147C66.2772 4.21851 66.4947 3.82356 66.5922 3.39224C66.6896 2.96093 66.6631 2.51084 66.5156 2.09397C66.3663 1.68569 66.1064 1.32699 65.7649 1.05796C65.4234 0.788923 65.0139 0.620158 64.582 0.570528C61.7845 0.259491 58.9684 0.965779 56.6488 2.56025C54.3292 4.15472 52.661 6.53083 51.9492 9.25412C51.4795 11.0154 51.4353 12.8631 51.8203 14.6447C51.8717 14.8335 51.875 15.0321 51.83 15.2225C51.785 15.4128 51.693 15.5889 51.5625 15.7346L35.8476 31.3674L16.6758 12.219L16.0664 9.12522C15.9319 8.44174 15.5975 7.81361 15.1054 7.32053L8.97653 1.19162C8.75886 0.973708 8.50037 0.800835 8.21585 0.682888C7.93132 0.56494 7.62633 0.504231 7.31833 0.504231C7.01032 0.504231 6.70534 0.56494 6.42081 0.682888C6.13629 0.800835 5.8778 0.973708 5.66013 1.19162L0.691376 6.16037C0.473462 6.37804 0.30059 6.63653 0.182642 6.92106C0.0646947 7.20559 0.00398537 7.51057 0.00398537 7.81857C0.00398537 8.12658 0.0646947 8.43156 0.182642 8.71609C0.30059 9.00062 0.473462 9.25911 0.691376 9.47678L6.80856 15.6057C7.30164 16.0977 7.92977 16.4322 8.61325 16.5666L11.707 17.176L30.8672 36.3479L15.2343 52.0627C15.0979 52.1978 14.9304 52.2973 14.7465 52.3525C14.5626 52.4077 14.3679 52.4168 14.1797 52.3791C12.394 51.9945 10.5426 52.0387 8.77731 52.508C6.77572 53.0373 4.94777 54.0818 3.47559 55.5376C2.0034 56.9933 0.938398 58.8094 0.386688 60.8049C0.0141053 62.1983 -0.0932273 63.6492 0.0702822 65.0822C0.122862 65.5182 0.296849 65.9306 0.572414 66.2725C0.847979 66.6143 1.21404 66.8719 1.62888 67.0158C2.04841 67.1643 2.50152 67.1902 2.93525 67.0906C3.36897 66.991 3.76537 66.7699 4.07809 66.4533L7.33591 63.1252C7.44485 63.0154 7.57446 62.9282 7.71726 62.8687C7.86007 62.8092 8.01324 62.7786 8.16794 62.7786C8.32264 62.7786 8.47581 62.8092 8.61861 62.8687C8.76142 62.9282 8.89103 63.0154 8.99997 63.1252L12.3164 66.4416C12.5329 66.6599 12.6549 66.9545 12.6562 67.2619C12.6571 67.419 12.6265 67.5746 12.5661 67.7195C12.5057 67.8644 12.4168 67.9958 12.3047 68.1057L9.03513 71.4338C8.72054 71.7446 8.5003 72.1381 8.39985 72.5687C8.29939 72.9994 8.32282 73.4496 8.46744 73.8676C8.61205 74.2855 8.87194 74.6539 9.21708 74.9304C9.56223 75.2068 9.97854 75.38 10.4179 75.4299C10.85 75.4767 11.2842 75.5002 11.7187 75.5002C14.3096 75.499 16.827 74.6393 18.8773 73.0554C20.9276 71.4715 22.3953 69.2529 23.0508 66.7463C23.5205 64.9851 23.5647 63.1374 23.1797 61.3557C23.1283 61.1669 23.1249 60.9683 23.1699 60.778C23.215 60.5876 23.3069 60.4115 23.4375 60.2658L39.1523 44.633L39.9961 45.4651C39.6683 45.7917 39.4083 46.1798 39.2308 46.6071C39.0534 47.0344 38.962 47.4926 38.962 47.9553C38.962 48.418 39.0534 48.8762 39.2308 49.3035C39.4083 49.7308 39.6683 50.1189 39.9961 50.4455L41.6484 52.0627C41.7469 52.1603 41.862 52.2397 41.9883 52.2971H42.082H42.1875L46.9336 53.469C46.4878 54.1552 46.2954 54.9755 46.3895 55.7884C46.4837 56.6013 46.8584 57.3559 47.4492 57.9221L64.0312 74.469C64.6904 75.1273 65.5839 75.4971 66.5156 75.4971C67.4472 75.4971 68.3408 75.1273 69 74.469L73.9687 69.5002C74.6271 68.841 74.9969 67.9475 74.9969 67.0158C74.9969 66.0842 74.6271 65.1906 73.9687 64.5315L57.4218 47.9494ZM53.1679 17.3518C53.5788 16.9389 53.8806 16.4304 54.0463 15.872C54.212 15.3136 54.2364 14.7227 54.1172 14.1526C53.814 12.739 53.8461 11.2741 54.2109 9.87521C54.6397 8.26186 55.4879 6.79076 56.6693 5.61137C57.8508 4.43199 59.3234 3.58635 60.9375 3.16037C62.0475 2.85799 63.2057 2.77441 64.3476 2.91428L61.0312 6.2424C60.7035 6.56902 60.4434 6.95712 60.266 7.38445C60.0885 7.81178 59.9972 8.26993 59.9972 8.73264C59.9972 9.19534 60.0885 9.6535 60.266 10.0808C60.4434 10.5082 60.7035 10.8963 61.0312 11.2229L64.3476 14.5627C64.6742 14.8905 65.0623 15.1505 65.4897 15.328C65.917 15.5054 66.3752 15.5967 66.8379 15.5967C67.3006 15.5967 67.7587 15.5054 68.1861 15.328C68.6134 15.1505 69.0015 14.8905 69.3281 14.5627L72.6562 11.176C72.7627 12.3148 72.6554 13.4634 72.3398 14.5627C71.9086 16.1634 71.0647 17.6228 69.8925 18.795C68.7202 19.9673 67.2608 20.8112 65.6601 21.2424C64.2509 21.6186 62.7719 21.6508 61.3476 21.3362C60.7757 21.2149 60.1826 21.2382 59.6219 21.404C59.0612 21.5697 58.5508 21.8726 58.1367 22.2854L42.4687 38.0002L37.5 33.0315L53.1679 17.3518ZM21.832 58.6487C21.4211 59.0615 21.1193 59.57 20.9536 60.1285C20.7879 60.6869 20.7636 61.2777 20.8828 61.8479C21.1859 63.2614 21.1538 64.7263 20.789 66.1252C20.3589 67.7264 19.5153 69.1864 18.3429 70.3588C17.1706 71.5312 15.7106 72.3748 14.1093 72.8049C12.9993 73.1073 11.8411 73.1909 10.6992 73.051L13.9687 69.7112C14.6271 69.052 14.9969 68.1584 14.9969 67.2268C14.9969 66.2951 14.6271 65.4016 13.9687 64.7424L10.6523 61.4377C10.3257 61.11 9.9376 60.8499 9.51027 60.6725C9.08294 60.495 8.62478 60.4037 8.16208 60.4037C7.69937 60.4037 7.24122 60.495 6.81389 60.6725C6.38656 60.8499 5.99846 61.11 5.67184 61.4377L2.40231 64.8127C2.27821 63.6815 2.36564 62.537 2.66013 61.4377C3.0872 59.8242 3.93321 58.3522 5.11243 57.1709C6.29164 55.9896 7.76216 55.141 9.37497 54.7112C10.785 54.3408 12.2626 54.3087 13.6875 54.6174C14.2594 54.7386 14.8525 54.7153 15.4132 54.5496C15.9739 54.3839 16.4843 54.0809 16.8984 53.6682L32.5312 38.0002L37.5 42.969L21.832 58.6487ZM47.4492 41.8088C47.6034 41.8079 47.7563 41.8375 47.8991 41.8958C48.0419 41.9541 48.1717 42.04 48.2812 42.1487L49.1133 42.9807L42.4804 49.6135L41.6484 48.7815C41.4301 48.5619 41.3076 48.2649 41.3076 47.9553C41.3076 47.6457 41.4301 47.3487 41.6484 47.1291L46.6289 42.1487C46.8472 41.9322 47.1418 41.8101 47.4492 41.8088ZM7.31247 2.84397L9.37497 4.91818L4.41794 9.87521L2.34372 7.81272L7.31247 2.84397ZM8.48434 13.9416L5.23825 10.719L10.2187 5.7385L13.4414 8.97287C13.6076 9.13517 13.7218 9.34319 13.7695 9.57053L14.332 12.4065L11.9062 14.8322L9.07028 14.2697C8.84295 14.222 8.63492 14.1078 8.47263 13.9416H8.48434ZM13.957 16.0979L15.6093 14.4455L43.3593 42.1487L41.6484 43.8596L13.957 16.0979ZM50.1445 45.2776L51.1406 49.2502L48.7968 51.594L44.8242 50.5979L50.1445 45.2776ZM72.3164 67.8362L67.3359 72.8166C67.1163 73.0349 66.8193 73.1574 66.5097 73.1574C66.2001 73.1574 65.9031 73.0349 65.6836 72.8166L49.1133 56.2346C48.8968 56.0163 48.7747 55.7217 48.7734 55.4143C48.7725 55.2601 48.8021 55.1072 48.8604 54.9644C48.9187 54.8216 49.0046 54.6917 49.1133 54.5822L54.082 49.6135C54.1915 49.5049 54.3214 49.419 54.4641 49.3606C54.6069 49.3023 54.7598 49.2728 54.914 49.2737C55.2215 49.2749 55.5161 49.397 55.7343 49.6135L72.3164 66.1838C72.425 66.2933 72.5109 66.4232 72.5692 66.566C72.6275 66.7087 72.6571 66.8616 72.6562 67.0158C72.6549 67.3233 72.5329 67.6179 72.3164 67.8362Z" fill="#FF9F17"/>
<path d="M52.0078 54.9922C51.8983 54.8848 51.751 54.8247 51.5976 54.8247C51.4443 54.8247 51.297 54.8848 51.1875 54.9922C51.1326 55.0467 51.089 55.1115 51.0592 55.1829C51.0295 55.2543 51.0142 55.3309 51.0142 55.4082C51.0142 55.4856 51.0295 55.5621 51.0592 55.6335C51.089 55.7049 51.1326 55.7697 51.1875 55.8242L66.0937 70.7422C66.2055 70.8544 66.3572 70.9176 66.5156 70.918C66.5922 70.9175 66.668 70.9017 66.7385 70.8715C66.8089 70.8414 66.8726 70.7974 66.9258 70.7422C66.9807 70.6877 67.0243 70.6229 67.054 70.5515C67.0838 70.4801 67.0991 70.4035 67.0991 70.3262C67.0991 70.2488 67.0838 70.1722 67.054 70.1008C67.0243 70.0294 66.9807 69.9646 66.9258 69.9102L52.0078 54.9922Z" fill="#FF9F17"/>
<path d="M53.6719 53.3398C53.5616 53.2295 53.4119 53.1675 53.2559 53.1675C53.0998 53.1675 52.9502 53.2295 52.8399 53.3398C52.7295 53.4502 52.6675 53.5998 52.6675 53.7559C52.6675 53.9119 52.7295 54.0615 52.8399 54.1719L67.7578 69.0781C67.811 69.1333 67.8747 69.1773 67.9451 69.2075C68.0156 69.2377 68.0913 69.2535 68.168 69.2539C68.2448 69.2548 68.321 69.2397 68.3917 69.2094C68.4623 69.1791 68.5258 69.1344 68.5781 69.0781C68.6342 69.0255 68.6789 68.962 68.7094 68.8914C68.7399 68.8209 68.7557 68.7448 68.7557 68.668C68.7557 68.5911 68.7399 68.515 68.7094 68.4445C68.6789 68.374 68.6342 68.3104 68.5781 68.2578L53.6719 53.3398Z" fill="#FF9F17"/>
<path d="M55.3242 51.6875C55.2698 51.6326 55.205 51.589 55.1336 51.5592C55.0622 51.5295 54.9856 51.5142 54.9082 51.5142C54.8309 51.5142 54.7543 51.5295 54.6829 51.5592C54.6115 51.589 54.5467 51.6326 54.4922 51.6875C54.3848 51.797 54.3247 51.9443 54.3247 52.0976C54.3247 52.251 54.3848 52.3983 54.4922 52.5078L69.4102 67.4258C69.522 67.5379 69.6737 67.6012 69.832 67.6016C69.9866 67.5994 70.134 67.5362 70.2422 67.4258C70.3503 67.3143 70.4108 67.1651 70.4108 67.0098C70.4108 66.8545 70.3503 66.7053 70.2422 66.5937L55.3242 51.6875Z" fill="#FF9F17"/>
</g>
<defs>
<clipPath id="clip0_102_57">
<rect width="75" height="75" fill="white" transform="translate(0 0.5)"/>
</clipPath>
</defs>
</svg>
