<svg width="75" height="76" viewBox="0 0 75 76" fill="none" xmlns="http://www.w3.org/2000/svg">
<g clip-path="url(#clip0_102_213)">
<path d="M59.9965 66.1275V74.3309V75.5H58.6361H1.36886H0.00846863V74.3309V1.67568V0.506592H1.36886H42.2806H42.8493L43.249 0.850053L59.6122 14.9121L60.0118 15.2556V15.7444V33.4194C61.7258 33.6704 63.2629 34.3705 64.4389 35.3811C65.9146 36.6493 66.8369 38.4128 66.8369 40.3547C66.8369 41.4841 66.5217 42.5608 65.9607 43.5185C65.4918 44.3177 64.8462 45.031 64.07 45.6255V56.7616H69.5653C71.0641 56.7616 72.4322 57.29 73.4159 58.1354C74.3997 58.9808 75.0146 60.1565 75.0146 61.4445V64.9584V66.1275H73.6542H60.0118H59.9965ZM57.268 33.4128V16.9069H42.2652C41.512 16.9069 40.9048 16.3785 40.9048 15.7378V15.7047V2.84477H2.72157V73.1552H57.268V66.1209H43.6333H42.2729V64.9518V61.4379C42.2729 60.1499 42.8878 58.9742 43.8716 58.1288C44.8554 57.2833 46.2234 56.7549 47.7222 56.7549H53.2175V45.6189C52.4413 45.031 51.7957 44.3177 51.3268 43.5119C50.7658 42.5541 50.4506 41.4841 50.4506 40.3481C50.4506 38.4062 51.3653 36.6493 52.8486 35.3745C54.0246 34.3639 55.554 33.6638 57.268 33.4128ZM55.9537 56.7549H61.3261V45.0641V44.4762L61.8795 44.1261C62.5635 43.6902 63.1323 43.1156 63.5166 42.4617C63.8855 41.8342 64.093 41.1143 64.093 40.3481C64.093 39.0535 63.4781 37.8844 62.4944 37.0324C61.5106 36.1869 60.1425 35.6585 58.6361 35.6585C57.1296 35.6585 55.7692 36.1869 54.7778 37.0324C53.794 37.8778 53.1791 39.0535 53.1791 40.3481C53.1791 41.1143 53.3866 41.8276 53.7556 42.4617C54.1399 43.1156 54.7086 43.6902 55.3926 44.1261L55.946 44.4762V45.0641V56.7549H55.9537ZM69.55 59.0997H47.7299C46.9843 59.0997 46.3003 59.3639 45.8084 59.7866C45.3165 60.2094 45.0091 60.7972 45.0091 61.4379V63.7827H72.2784V61.4379C72.2784 60.7972 71.971 60.2094 71.4791 59.7866C70.9872 59.3639 70.3032 59.0997 69.5576 59.0997H69.55ZM29.9986 68.4723H51.8187V70.817H29.9986V68.4723ZM8.17852 34.4894H36.816V36.8342H8.17852V34.4894ZM8.17852 29.7999H51.8187V32.1446H8.17852V29.7999ZM8.17852 25.1103H51.8187V27.4551H8.17852V25.1103ZM8.17852 20.4207H51.8187V22.7655H8.17852V20.4207ZM55.3388 14.5621L43.6333 4.50263V14.5621H55.3388Z" fill="#1A96FF"/>
</g>
<defs>
<clipPath id="clip0_102_213">
<rect width="75" height="75" fill="white" transform="translate(0 0.5)"/>
</clipPath>
</defs>
</svg>
