<svg width="75" height="76" viewBox="0 0 75 76" fill="none" xmlns="http://www.w3.org/2000/svg">
<g clip-path="url(#clip0_102_188)">
<path d="M65.1041 15.9167C60.3832 14.6567 55.7712 13.0195 51.3125 11.0208C46.9259 9.11795 42.6913 6.88226 38.6458 4.33333L37.5 3.625L36.375 4.35417C32.3295 6.90309 28.0949 9.13878 23.7083 11.0417C19.2423 13.0343 14.6232 14.6645 9.89581 15.9167L8.33331 16.3125V33.6875C8.33331 61.5833 36.5208 72.0208 36.7916 72.125L37.5 72.375L38.2083 72.125C38.5 72.125 66.6666 61.6042 66.6666 33.6875V16.3125L65.1041 15.9167ZM62.5 33.6875C62.5 56.6042 41.6666 66.2083 37.5 67.9167C33.3333 66.2083 12.5 56.5833 12.5 33.6875V19.5417C16.8947 18.2783 21.1967 16.712 25.375 14.8542C29.5536 13.0479 33.6046 10.9598 37.5 8.60417C41.3954 10.9598 45.4464 13.0479 49.625 14.8542C53.8033 16.712 58.1052 18.2783 62.5 19.5417V33.6875Z" fill="#1CA717"/>
<path d="M22.6667 35.6458C22.2681 35.3045 21.7555 35.1262 21.2311 35.1464C20.7068 35.1667 20.2094 35.384 19.8384 35.7551C19.4674 36.1261 19.25 36.6235 19.2298 37.1478C19.2095 37.6721 19.3879 38.1848 19.7292 38.5833L32.2292 51.0833L55 29.1875C55.3978 28.8007 55.6257 28.2718 55.6335 27.717C55.6413 27.1622 55.4284 26.627 55.0417 26.2292C54.6549 25.8313 54.1259 25.6035 53.5711 25.5956C53.0163 25.5878 52.4812 25.8007 52.0833 26.1875L32.3542 45.3333L22.6667 35.6458Z" fill="#1CA717"/>
</g>
<defs>
<clipPath id="clip0_102_188">
<rect width="75" height="75" fill="white" transform="translate(0 0.5)"/>
</clipPath>
</defs>
</svg>
