<svg width="75" height="76" viewBox="0 0 75 76" fill="none" xmlns="http://www.w3.org/2000/svg">
<path d="M9.375 66.125C7.5102 66.125 5.72177 65.3842 4.40316 64.0656C3.08454 62.747 2.34375 60.9586 2.34375 59.0938V16.9063C2.34375 15.0414 3.08454 13.253 4.40316 11.9344C5.72177 10.6158 7.5102 9.875 9.375 9.875H25.7812C26.1256 9.87444 26.4658 9.94975 26.7777 10.0956C27.0896 10.2414 27.3656 10.4542 27.5859 10.7187L34.6875 19.25H63.2812C63.9029 19.25 64.499 19.4969 64.9385 19.9365C65.3781 20.376 65.625 20.9721 65.625 21.5938C65.625 22.2154 65.3781 22.8115 64.9385 23.251C64.499 23.6906 63.9029 23.9375 63.2812 23.9375H33.5859C33.2456 23.9346 32.9099 23.8577 32.6023 23.712C32.2947 23.5663 32.0225 23.3553 31.8047 23.0938L24.6797 14.5625H9.375C8.7534 14.5625 8.15726 14.8094 7.71772 15.249C7.27818 15.6885 7.03125 16.2846 7.03125 16.9063V59.0938C7.03125 59.7154 7.27818 60.3115 7.71772 60.751C8.15726 61.1906 8.7534 61.4375 9.375 61.4375C9.9966 61.4375 10.5927 61.6844 11.0323 62.124C11.4718 62.5635 11.7188 63.1597 11.7188 63.7813C11.7188 64.4029 11.4718 64.999 11.0323 65.4385C10.5927 65.8781 9.9966 66.125 9.375 66.125Z" fill="#9D9595"/>
<path d="M59.4844 66.125H9.375C9.02105 66.1329 8.66991 66.0605 8.34794 65.9133C8.02597 65.7661 7.74153 65.5478 7.51599 65.2749C7.29045 65.002 7.12967 64.6816 7.04572 64.3376C6.96176 63.9937 6.95682 63.6352 7.03125 63.2891L14.0625 30.4766C14.1769 29.9435 14.4734 29.467 14.9012 29.1291C15.329 28.7911 15.8612 28.6129 16.4063 28.625H70.3125C70.6665 28.6171 71.0176 28.6895 71.3396 28.8367C71.6615 28.9839 71.946 29.2022 72.1715 29.4751C72.3971 29.748 72.5578 30.0684 72.6418 30.4124C72.7257 30.7563 72.7307 31.1148 72.6563 31.4609L66.375 60.5703C66.0367 62.1455 65.1676 63.5567 63.9133 64.5679C62.659 65.579 61.0955 66.1287 59.4844 66.125ZM12.2813 61.4375H59.4844C60.0294 61.4496 60.5616 61.2714 60.9894 60.9334C61.4172 60.5955 61.7138 60.119 61.8281 59.5859L67.4063 33.3125H18.1875L12.2813 61.4375Z" fill="#9D9595"/>
</svg>
