<svg width="75" height="76" viewBox="0 0 75 76" fill="none" xmlns="http://www.w3.org/2000/svg">
<g clip-path="url(#clip0_102_141)">
<path d="M9.37504 68.4688C9.06659 68.4705 8.76082 68.4114 8.47526 68.2948C8.1897 68.1781 7.92998 68.0063 7.71098 67.7891C7.4913 67.5712 7.31694 67.312 7.19795 67.0264C7.07896 66.7407 7.0177 66.4344 7.0177 66.125C7.0177 65.8156 7.07896 65.5093 7.19795 65.2237C7.31694 64.938 7.4913 64.6788 7.71098 64.4609L63.961 8.21094C64.4023 7.76961 65.0009 7.52167 65.625 7.52167C66.2492 7.52167 66.8478 7.76961 67.2891 8.21094C67.7304 8.65228 67.9784 9.25086 67.9784 9.87501C67.9784 10.4992 67.7304 11.0977 67.2891 11.5391L11.0391 67.7891C10.8201 68.0063 10.5604 68.1781 10.2748 68.2948C9.98926 68.4114 9.68349 68.4705 9.37504 68.4688Z" fill="#D51616"/>
<path d="M65.6251 68.4688C65.3166 68.4705 65.0108 68.4114 64.7253 68.2948C64.4397 68.1781 64.18 68.0063 63.961 67.7891L7.71101 11.5391C7.26967 11.0977 7.02173 10.4992 7.02173 9.87501C7.02173 9.25086 7.26967 8.65228 7.71101 8.21094C8.15234 7.76961 8.75092 7.52167 9.37507 7.52167C9.99921 7.52167 10.5978 7.76961 11.0391 8.21094L67.2891 64.4609C67.5088 64.6788 67.6832 64.938 67.8022 65.2237C67.9211 65.5093 67.9824 65.8156 67.9824 66.125C67.9824 66.4344 67.9211 66.7407 67.8022 67.0264C67.6832 67.312 67.5088 67.5712 67.2891 67.7891C67.0701 68.0063 66.8104 68.1781 66.5248 68.2948C66.2393 68.4114 65.9335 68.4705 65.6251 68.4688Z" fill="#D51616"/>
</g>
<defs>
<clipPath id="clip0_102_141">
<rect width="75" height="75" fill="white" transform="translate(0 0.5)"/>
</clipPath>
</defs>
</svg>
