<?xml version="1.0" encoding="UTF-8" standalone="no"?>
<!DOCTYPE svg PUBLIC "-//W3C//DTD SVG 1.1//EN" "http://www.w3.org/Graphics/SVG/1.1/DTD/svg11.dtd">
<svg width="100%" height="100%" viewBox="0 0 199 36" version="1.1" xmlns="http://www.w3.org/2000/svg" xmlns:xlink="http://www.w3.org/1999/xlink" xml:space="preserve" xmlns:serif="http://www.serif.com/" style="fill-rule:evenodd;clip-rule:evenodd;stroke-linejoin:round;stroke-miterlimit:2;">
    <g transform="matrix(0.0616219,0,0,0.0616219,-8.58114,17.845)">
        <g transform="matrix(4.16667,0,0,4.16667,159.452,-111.177)">
            <path d="M0,97.391L17.953,0L51.478,0C64.952,0 75.185,2.254 82.167,6.759C89.151,11.268 92.642,17.867 92.642,26.567C92.642,32.6 90.856,37.407 87.292,40.978C83.726,44.551 78.554,46.695 71.774,47.404C77.628,48.293 82.229,50.508 85.577,54.051C88.925,57.597 90.599,62.004 90.599,67.278C90.599,76.585 86.837,83.929 79.321,89.312C71.802,94.697 61.479,97.391 48.347,97.391L0,97.391ZM37.841,73.689L40.3,73.689C46.196,73.689 50.31,73.07 52.636,71.835C54.964,70.598 56.13,68.496 56.13,65.537C56.13,63.241 55.317,61.55 53.7,60.468C52.081,59.385 49.524,58.843 46.021,58.843L40.563,58.843L37.841,73.689ZM44.821,36.098L46.552,36.098C51.081,36.098 54.401,35.566 56.507,34.497C58.618,33.434 59.673,31.745 59.673,29.432C59.673,27.655 58.972,26.258 57.569,25.238C56.173,24.215 54.228,23.702 51.741,23.702L47.149,23.702L44.821,36.098Z" style="fill:rgb(237,29,36);"/>
        </g>
        <g transform="matrix(4.16667,0,0,4.16667,557.471,-111.177)">
            <path d="M0,97.391L17.965,0L53.287,0L47.168,33.645L66.326,33.645L72.512,0L107.902,0L89.807,97.391L54.482,97.391L61.068,62.386L41.844,62.386L35.26,97.391L0,97.391Z" style="fill:rgb(237,29,36);"/>
        </g>
        <g transform="matrix(0.758202,-4.0971,-4.0971,-0.758202,1301.67,238.877)">
            <path d="M-25.873,66.291L73.172,66.291L79.684,31.1L-19.349,31.039L-25.873,66.291Z" style="fill:rgb(237,29,36);"/>
        </g>
        <g transform="matrix(4.16667,0,0,4.16667,1237.32,-111.177)">
            <path d="M0,97.391L17.961,0L53.674,0L64.852,30.933C65.031,31.422 65.295,32.176 65.65,33.198C68.137,39.936 69.861,45.771 70.838,50.693L80.215,0L115.531,0L97.506,97.391L61.857,97.391L43.83,47.101C43.652,51.667 42.656,59.075 40.836,69.321L40.707,70.118L35.717,97.391L0,97.391Z" style="fill:rgb(237,29,36);"/>
        </g>
        <g transform="matrix(4.16667,0,0,4.16667,1718.16,-111.177)">
            <path d="M0,97.391L17.961,0L53.678,0L64.854,30.933C65.031,31.422 65.299,32.176 65.656,33.198C68.133,39.936 69.863,45.771 70.838,50.693L80.215,0L115.533,0L97.51,97.391L61.861,97.391L43.832,47.101C43.654,51.667 42.66,59.075 40.84,69.321L40.707,70.118L35.721,97.391L0,97.391Z" style="fill:rgb(237,29,36);"/>
        </g>
        <g transform="matrix(4.16667,0,0,4.16667,2199.01,-111.177)">
            <path d="M0,97.391L17.959,0L84.742,0L79.949,26.424L48.221,26.424L46.424,35.824L76.297,35.824L71.771,60.477L41.969,60.477L40.043,70.966L74.631,70.966L69.773,97.391L0,97.391Z" style="fill:rgb(237,29,36);"/>
        </g>
        <g transform="matrix(4.16667,0,0,4.16667,2550.29,-111.177)">
            <path d="M0,97.391L17.961,0L53.277,0L45.898,39.518L71.9,0L113.074,0L76.297,49.161L96.18,97.391L58.004,97.391L43.168,54.748L35.25,97.391L0,97.391Z" style="fill:rgb(237,29,36);"/>
        </g>
        <g transform="matrix(4.16667,0,0,4.16667,2923.27,-111.177)">
            <path d="M0,97.391L50.834,0L89.34,0L102.037,97.391L67.393,97.391L66.729,84.449L43.318,84.449L38,97.391L0,97.391ZM52.959,61.431L65.391,61.431L64.998,50.981C64.953,50.405 64.908,49.584 64.863,48.522C64.645,44.173 64.533,40.665 64.533,38.005C64.533,36.229 64.543,34.866 64.566,33.913C64.586,32.957 64.621,32.058 64.664,31.218C63.865,33.837 63.045,36.351 62.207,38.768C61.361,41.186 60.563,43.354 59.807,45.257L52.959,61.431Z" style="fill:rgb(237,29,36);"/>
        </g>
        <g transform="matrix(4.16667,0,0,4.16667,1109.36,-197.184)">
            <path d="M0,-10.555L84.41,-21.159L-3.871,10.604L0,-10.555Z" style="fill:rgb(255,203,5);"/>
        </g>
    </g>
</svg>
