<?xml version="1.0" ?><svg viewBox="0 0 64 64" xmlns="http://www.w3.org/2000/svg"><g data-name="Flying Fish" id="Flying_Fish"><path d="M44.59,11.06a4.85,4.85,0,1,0,4.85,4.85A4.86,4.86,0,0,0,44.59,11.06Zm2.85,4.85a2.87,2.87,0,0,1-2.85,2.85,2.85,2.85,0,1,1,2.85-2.85Z"/><path d="M31.42,16.56a4.26,4.26,0,1,0,3,7.27,4.26,4.26,0,0,0-3-7.27Zm2.25,4.26a2.23,2.23,0,0,1-.66,1.6,2.21,2.21,0,0,1-1.59.66,2.26,2.26,0,1,1,2.25-2.26Z"/><path d="M47.6,24.21a3.23,3.23,0,1,0,2.27.94,3.16,3.16,0,0,0-2.27-.94Zm1.22,3.22a1.22,1.22,0,1,1-1.22-1.22h0a1.25,1.25,0,0,1,.86.35A1.23,1.23,0,0,1,48.82,27.43Z"/><path d="M55.54,34.54a3.3,3.3,0,0,0-3.63-.84l-4.39,1.18a12,12,0,0,0-13.41-5.5l-6.64,1.77h0L25,31.82a2.24,2.24,0,0,0-1.58,2.73l.14.51a11.72,11.72,0,0,0,3.18,5.39l-2,.53c-3.39-3.43-6.57-3.24-9.51-2.45a2.41,2.41,0,0,0-1.63,1.4,2.75,2.75,0,0,0,.19,2.4l.79,1.38L13,44.12a4,4,0,0,0-4.25-1.5L7.5,43a2,2,0,0,0-1.43,2.48l.27,1a4.27,4.27,0,0,0,1.27,2.08A4.19,4.19,0,0,0,7.55,51l.26,1a2.06,2.06,0,0,0,1,1.23,2,2,0,0,0,1,.27,2,2,0,0,0,.53-.07L11.58,53a3.94,3.94,0,0,0,2.92-3.32,20.46,20.46,0,0,1,2.15-.16l0,.58a3.45,3.45,0,0,0,2.92,3.49c1,.17,2.08.4,3.08.62s2.05.46,3.08.62a3.94,3.94,0,0,0,.77.07,5.45,5.45,0,0,0,3.22-1.12,7,7,0,0,0,2.75-4.54L34,49l-.15,2.31a2.74,2.74,0,0,0,1,2.17,2.44,2.44,0,0,0,1.46.49,2.37,2.37,0,0,0,.65-.09c3-.79,5.82-2.22,7-6.94a20.64,20.64,0,0,0,3.14-1.32h0l0,0A20.92,20.92,0,0,0,55.36,38,3,3,0,0,0,55.54,34.54Zm-10,.88-3.81,1a11.9,11.9,0,0,0-4.32-4.31,12.9,12.9,0,0,0-2.08-.94A10,10,0,0,1,45.51,35.42ZM40.8,45.73l-11.13,2A17.76,17.76,0,0,1,25,48c-1.56-.13-3.25-.29-5.13-.37L34,43.8c.36,0,.72.09,1.1.09a11.76,11.76,0,0,0,3.08-.41l3.36-.9a2.09,2.09,0,0,0,.82-.43,4.88,4.88,0,0,1,3.09,2.1A19.24,19.24,0,0,1,40.8,45.73ZM25.48,34.54,25.35,34a.22.22,0,0,1,.16-.28l3.27-.87a9.9,9.9,0,0,1,7.6,1,10.08,10.08,0,0,1,4.76,6.5.22.22,0,0,1-.16.28l-3.36.9A9.93,9.93,0,0,1,25.48,34.54Zm-10,6.79a.72.72,0,0,1-.07-.63.42.42,0,0,1,.3-.24c2.14-.58,4.27-.88,6.72,1.13l-5.89,1.58Zm-2.21,6.56a1,1,0,0,0-.79,1.1,2,2,0,0,1-1.46,2.12l-1.31.33-.27-1a2.26,2.26,0,0,1,.23-1.74,1,1,0,0,0,.11-.76,1,1,0,0,0-.48-.61,2.3,2.3,0,0,1-1.07-1.39l-.25-1,1.28-.34a2,2,0,0,1,2.33,1.13,1,1,0,0,0,1.18.57L28.69,42a12.77,12.77,0,0,0,1.41.76L18,46a2.57,2.57,0,0,0-1.73,1.57A19.57,19.57,0,0,0,13.31,47.89Zm15.2,4.32A3.3,3.3,0,0,1,26,52.9c-1-.16-1.94-.37-3-.6s-2.08-.46-3.18-.64a1.47,1.47,0,0,1-1.25-1.44l0-.67c2.12.05,4.15.23,6.11.4A19.71,19.71,0,0,0,30,49.72l.28,0A5.18,5.18,0,0,1,28.51,52.21Zm8-.26a.4.4,0,0,1-.37-.06.69.69,0,0,1-.26-.52L36,48.63l5.14-.93.61-.14C40.66,50.57,38.64,51.38,36.48,52Zm17.18-15a19,19,0,0,1-6.46,6.35,6.92,6.92,0,0,0-4.1-3,2.61,2.61,0,0,0,0-.4c-.08-.27-.2-.8-.49-1.58l9.84-2.63c.82-.22,1.35-.1,1.5.1S54,36.34,53.66,36.94Z"/><path d="M48.3,37.92a1,1,0,0,0-.71,1.23h0a1,1,0,0,0,1.22.71h0a1,1,0,0,0-.51-1.94Z"/></g></svg>