<?xml version="1.0" ?><!DOCTYPE svg  PUBLIC '-//W3C//DTD SVG 1.0//EN'  'http://www.w3.org/TR/2001/REC-SVG-20010904/DTD/svg10.dtd'><svg height="64px" style="shape-rendering:geometricPrecision; text-rendering:geometricPrecision; image-rendering:optimizeQuality; fill-rule:evenodd; clip-rule:evenodd" version="1.0" viewBox="0 0 9758 11355" width="55px" xml:space="preserve" xmlns="http://www.w3.org/2000/svg" xmlns:xlink="http://www.w3.org/1999/xlink"><defs><style type="text/css">
   <![CDATA[
    .fil0 {fill:#27afb7;fill-rule:nonzero}
   ]]>
  </style></defs><g id="Layer_x0020_1"><path class="fil0" d="M7806 9936l0 1242 0 177 -177 0 -7451 0 -177 0 0 -177 0 -11000 0 -177 177 0 5323 0 74 0 52 52 2129 2129 52 52 0 74 0 2676c223,38 423,144 576,297 192,192 312,459 312,753 0,171 -41,334 -114,479 -61,121 -145,229 -246,319l0 1686 715 0c195,0 373,80 501,208 128,128 208,306 208,501l0 532 0 177 -177 0 -1775 0zm-355 -4953l0 -2499 -1952 0c-98,0 -177,-80 -177,-177l0 -5 0 -1947 -4968 0 0 10645 7097 0 0 -1065 -1774 0 -177 0 0 -177 0 -532c0,-195 80,-373 208,-501 128,-128 306,-208 501,-208l715 0 0 -1686c-101,-89 -185,-197 -246,-319 -73,-145 -114,-307 -114,-479 0,-294 119,-560 312,-753 153,-153 352,-259 575,-297zm-171 3534l699 0 0 -1770 0 -89 72 -53c89,-66 163,-153 213,-252 48,-95 75,-204 75,-320 0,-196 -80,-373 -208,-502 -128,-128 -306,-208 -502,-208 -196,0 -373,80 -502,208 -128,128 -208,306 -208,502 0,116 27,224 75,320 50,99 124,186 213,252l72 53 0 89 0 1770zm1769 355l-2839 0c-97,0 -186,40 -250,104 -64,64 -104,153 -104,250l0 355 3548 0 0 -355c0,-97 -40,-186 -104,-250 -64,-64 -153,-104 -250,-104zm-5146 1419l2839 0 0 355 -2839 0 0 -355zm-2839 -5145l3726 0 0 355 -3726 0 0 -355zm0 -710l5678 0 0 355 -5678 0 0 -355zm0 -710l5678 0 0 355 -5678 0 0 -355zm0 -710l5678 0 0 355 -5678 0 0 -355zm6136 -887l-1523 -1523 0 1523 1523 0z"/></g></svg>