<svg width="58" height="58" viewBox="0 0 58 58" fill="none" xmlns="http://www.w3.org/2000/svg">
<rect width="58" height="58" rx="29" fill="#5539F9"/>
<rect width="11.4286" height="12" transform="translate(12 10.5)" fill="#5539F9"/>
<rect x="16.7619" y="10.5" width="1.90476" height="12" fill="white"/>
<rect x="12" y="15.5" width="11.4286" height="2" fill="white"/>
<path d="M30 31.5C31.3845 31.5 32.7378 31.0895 33.889 30.3203C35.0401 29.5511 35.9373 28.4579 36.4672 27.1788C36.997 25.8997 37.1356 24.4922 36.8655 23.1344C36.5954 21.7765 35.9287 20.5292 34.9497 19.5503C33.9708 18.5713 32.7235 17.9046 31.3656 17.6345C30.0078 17.3644 28.6003 17.503 27.3212 18.0328C26.0421 18.5627 24.9489 19.4599 24.1797 20.611C23.4105 21.7622 23 23.1155 23 24.5C23 26.3565 23.7375 28.137 25.0503 29.4497C26.363 30.7625 28.1435 31.5 30 31.5ZM30 19.5C30.9889 19.5 31.9556 19.7932 32.7779 20.3427C33.6001 20.8921 34.241 21.673 34.6194 22.5866C34.9978 23.5002 35.0969 24.5055 34.9039 25.4755C34.711 26.4454 34.2348 27.3363 33.5355 28.0355C32.8363 28.7348 31.9454 29.211 30.9755 29.4039C30.0055 29.5969 29.0002 29.4978 28.0866 29.1194C27.173 28.741 26.3921 28.1001 25.8427 27.2779C25.2932 26.4556 25 25.4889 25 24.5C25 23.1739 25.5268 21.9022 26.4645 20.9645C27.4021 20.0268 28.6739 19.5 30 19.5Z" fill="white"/>
<path d="M31 33.5H29C26.0826 33.5 23.2847 34.6589 21.2218 36.7218C19.1589 38.7847 18 41.5826 18 44.5C18 44.7652 18.1054 45.0196 18.2929 45.2071C18.4804 45.3946 18.7348 45.5 19 45.5H41C41.2652 45.5 41.5196 45.3946 41.7071 45.2071C41.8946 45.0196 42 44.7652 42 44.5C42 41.5826 40.8411 38.7847 38.7782 36.7218C36.7153 34.6589 33.9174 33.5 31 33.5ZM20.06 43.5C20.3059 41.3006 21.3535 39.269 23.0027 37.7932C24.6518 36.3175 26.7869 35.5011 29 35.5H31C33.2131 35.5011 35.3482 36.3175 36.9973 37.7932C38.6465 39.269 39.6941 41.3006 39.94 43.5H20.06Z" fill="white"/>
</svg>
