<svg width="58" height="58" viewBox="0 0 58 58" fill="none" xmlns="http://www.w3.org/2000/svg">
<rect width="58" height="58" rx="29" fill="#F88D1A"/>
<path d="M42.7513 41H17.2144C17.0646 41 16.9209 40.9374 16.815 40.826C16.7091 40.7145 16.6495 40.5634 16.6495 40.4058V17.9943C16.6495 17.8367 16.7091 17.6855 16.815 17.5741C16.9209 17.4626 17.0646 17.4 17.2144 17.4H42.7513C42.9011 17.4 43.0448 17.4626 43.1507 17.5741C43.2567 17.6855 43.3162 17.8367 43.3162 17.9943V40.4058C43.3162 40.5634 43.2567 40.7145 43.1507 40.826C43.0448 40.9374 42.9011 41 42.7513 41ZM17.7906 39.8115H42.1751V18.5885H17.7793L17.7906 39.8115Z" fill="white"/>
<path d="M32.9276 26.416C32.8509 26.416 32.775 26.4 32.7043 26.3689C32.6335 26.3379 32.5693 26.2924 32.5155 26.2351C32.4616 26.1778 32.4191 26.1098 32.3904 26.0351C32.3618 25.9604 32.3476 25.8805 32.3486 25.8C32.3465 25.7747 32.3465 25.7493 32.3486 25.724V18.516H27.48V25.716C27.4837 25.7559 27.4837 25.7961 27.48 25.836C27.481 25.9141 27.4673 25.9916 27.4397 26.0641C27.412 26.1366 27.371 26.2026 27.3189 26.2583C27.2669 26.3141 27.2048 26.3585 27.1364 26.389C27.0679 26.4195 26.9944 26.4355 26.92 26.436C26.842 26.4344 26.765 26.4167 26.6934 26.3839C26.6219 26.3511 26.5572 26.3038 26.5031 26.2448C26.449 26.1857 26.4065 26.116 26.378 26.0397C26.3495 25.9634 26.3356 25.8819 26.3371 25.8V17.916C26.3371 17.7568 26.3974 17.6042 26.5045 17.4917C26.6117 17.3792 26.757 17.316 26.9086 17.316H32.9276C33.0792 17.316 33.2245 17.3792 33.3317 17.4917C33.4388 17.6042 33.4991 17.7568 33.4991 17.916V25.8C33.5006 25.88 33.4869 25.9595 33.4589 26.0339C33.431 26.1083 33.3892 26.1761 33.336 26.2334C33.2828 26.2907 33.2194 26.3364 33.1493 26.3677C33.0792 26.3991 33.0038 26.4155 32.9276 26.416Z" fill="white"/>
<path d="M32.9162 26.416C32.8313 26.4168 32.7474 26.3978 32.6703 26.3605C32.5932 26.3231 32.525 26.2683 32.4705 26.2L29.4724 22.24C29.4206 22.1792 29.3812 22.1079 29.3565 22.0306C29.3319 21.9532 29.3225 21.8714 29.329 21.7901C29.3354 21.7088 29.3576 21.6297 29.3942 21.5577C29.4308 21.4857 29.481 21.4223 29.5417 21.3714C29.6024 21.3205 29.6723 21.2831 29.7472 21.2615C29.8222 21.2399 29.9005 21.2346 29.9775 21.2459C30.0544 21.2572 30.1284 21.2848 30.1948 21.3271C30.2612 21.3695 30.3188 21.4256 30.3638 21.492L33.381 25.44C33.4472 25.5289 33.4883 25.6356 33.4998 25.7478C33.5112 25.86 33.4925 25.9734 33.4457 26.075C33.3988 26.1766 33.3259 26.2624 33.235 26.3227C33.1441 26.383 33.0389 26.4153 32.9314 26.416H32.9162Z" fill="white"/>
<path d="M26.9315 26.416C26.8026 26.4149 26.6779 26.3684 26.5772 26.284C26.518 26.2356 26.4686 26.1754 26.4319 26.1067C26.3953 26.0381 26.372 25.9624 26.3634 25.8842C26.3549 25.806 26.3614 25.7267 26.3824 25.6512C26.4034 25.5756 26.4385 25.5052 26.4857 25.444L29.4838 21.444C29.5793 21.3194 29.718 21.2396 29.8695 21.2224C30.021 21.2051 30.1727 21.2518 30.2915 21.352C30.4102 21.4523 30.4861 21.5979 30.5025 21.757C30.519 21.916 30.4746 22.0754 30.3791 22.2L27.381 26.2C27.3261 26.2688 27.2572 26.3239 27.1794 26.3613C27.1017 26.3987 27.017 26.4174 26.9315 26.416Z" fill="white"/>
<path d="M25.7353 38.656H19.5296C19.378 38.656 19.2327 38.5928 19.1255 38.4803C19.0183 38.3677 18.9581 38.2151 18.9581 38.056C18.9581 37.8969 19.0183 37.7443 19.1255 37.6317C19.2327 37.5192 19.378 37.456 19.5296 37.456H25.7353C25.8868 37.456 26.0322 37.5192 26.1393 37.6317C26.2465 37.7443 26.3067 37.8969 26.3067 38.056C26.3067 38.2151 26.2465 38.3677 26.1393 38.4803C26.0322 38.5928 25.8868 38.656 25.7353 38.656Z" fill="white"/>
<rect width="11.4286" height="12" transform="translate(9 9)" fill="#F88D1A"/>
<rect x="13.7619" y="9" width="1.90476" height="12" fill="white"/>
<rect x="9" y="14" width="11.4286" height="2" fill="white"/>
</svg>
