<svg width="75" height="76" viewBox="0 0 75 76" fill="none" xmlns="http://www.w3.org/2000/svg">
<g clip-path="url(#clip0_102_30)">
<path d="M37.5 68.4688C31.4739 68.4688 25.583 66.6818 20.5725 63.3339C15.5619 59.9859 11.6567 55.2273 9.35056 49.6599C7.04445 44.0925 6.44107 37.9662 7.61671 32.0559C8.79236 26.1455 11.6942 20.7165 15.9554 16.4554C20.2165 12.1942 25.6455 9.29236 31.5559 8.11671C37.4662 6.94107 43.5925 7.54445 49.1599 9.85056C54.7273 12.1567 59.4859 16.0619 62.8339 21.0725C66.1818 26.083 67.9688 31.9739 67.9688 38C67.9688 46.0808 64.7587 53.8307 59.0447 59.5447C53.3307 65.2587 45.5808 68.4688 37.5 68.4688ZM37.5 12.2188C32.401 12.2188 27.4164 13.7308 23.1767 16.5637C18.937 19.3966 15.6326 23.423 13.6812 28.134C11.7299 32.8449 11.2194 38.0286 12.2141 43.0297C13.2089 48.0308 15.6643 52.6245 19.2699 56.2301C22.8755 59.8357 27.4693 62.2911 32.4703 63.2859C37.4714 64.2807 42.6552 63.7701 47.3661 61.8188C52.077 59.8675 56.1035 56.563 58.9363 52.3233C61.7692 48.0836 63.2813 43.0991 63.2813 38C63.2813 31.1624 60.565 24.6048 55.7301 19.7699C50.8952 14.935 44.3376 12.2188 37.5 12.2188Z" fill="#D516A4"/>
<path d="M50.3907 53.2344C50.0822 53.2362 49.7764 53.177 49.4909 53.0604C49.2053 52.9438 48.9456 52.7719 48.7266 52.5547L35.836 39.6641C35.6188 39.4451 35.4469 39.1853 35.3303 38.8998C35.2136 38.6142 35.1545 38.3085 35.1563 38V19.25C35.1563 18.6284 35.4032 18.0323 35.8428 17.5927C36.2823 17.1532 36.8784 16.9062 37.5 16.9062C38.1216 16.9062 38.7178 17.1532 39.1573 17.5927C39.5969 18.0323 39.8438 18.6284 39.8438 19.25V37.0391L52.0547 49.2266C52.2744 49.4444 52.4488 49.7037 52.5678 49.9893C52.6867 50.2749 52.748 50.5812 52.748 50.8906C52.748 51.2 52.6867 51.5064 52.5678 51.792C52.4488 52.0776 52.2744 52.3368 52.0547 52.5547C51.8357 52.7719 51.576 52.9438 51.2904 53.0604C51.0049 53.177 50.6991 53.2362 50.3907 53.2344Z" fill="#D516A4"/>
</g>
<defs>
<clipPath id="clip0_102_30">
<rect width="75" height="75" fill="white" transform="translate(0 0.5)"/>
</clipPath>
</defs>
</svg>
