<svg width="75" height="76" viewBox="0 0 75 76" fill="none" xmlns="http://www.w3.org/2000/svg">
<path d="M54.4276 21.0724C53.2351 19.8796 51.6492 19.2229 49.963 19.2229C48.2767 19.2229 46.6908 19.8796 45.4981 21.0724C44.3056 22.2649 43.6489 23.8506 43.6489 25.5369C43.6489 27.2234 44.3056 28.8091 45.4981 30.0017C46.6908 31.1943 48.2762 31.8508 49.9623 31.851C49.963 31.851 49.963 31.851 49.963 31.851C51.6492 31.851 53.2351 31.1943 54.4276 30.0017C55.6202 28.8089 56.277 27.2233 56.277 25.5369C56.2768 23.8506 55.6201 22.265 54.4276 21.0724ZM51.916 27.4902C51.3942 28.0122 50.701 28.2998 49.9628 28.2998C49.2248 28.2996 48.5311 28.0122 48.0096 27.4902C47.4878 26.9687 47.2003 26.2752 47.2003 25.537C47.2003 24.7993 47.4876 24.1055 48.0096 23.5838C48.5311 23.0621 49.2253 22.7747 49.9628 22.7747C50.7004 22.7747 51.3942 23.0619 51.916 23.5838C52.9934 24.6608 52.9934 26.4132 51.916 27.4902Z" fill="#C547F6"/>
<path d="M5.8389 59.3017C5.3845 59.3017 4.93019 59.1285 4.5834 58.7817C3.88984 58.0883 3.88984 56.9635 4.5834 56.2702L14.8518 46.0016C15.5454 45.3081 16.6698 45.3081 17.3634 46.0016C18.057 46.695 18.057 47.8198 17.3634 48.5133L7.09459 58.7817C6.7479 59.1285 6.2935 59.3017 5.8389 59.3017Z" fill="#C547F6"/>
<path d="M8.13508 69.1411C7.6804 69.1411 7.22608 68.9677 6.8793 68.6209C6.18574 67.9274 6.18574 66.8032 6.8793 66.1097L17.5824 55.4066C18.2759 54.713 19.4004 54.713 20.0936 55.4066C20.7872 56.1001 20.7872 57.2247 20.0936 57.9181L9.39077 68.6209C9.04408 68.9677 8.5894 69.1411 8.13508 69.1411Z" fill="#C547F6"/>
<path d="M17.9742 71.437C17.5196 71.437 17.0652 71.2638 16.7184 70.917C16.0249 70.2236 16.0249 69.0989 16.7184 68.4056L26.9871 58.1366C27.6805 57.4434 28.8051 57.4432 29.4984 58.1366C30.192 58.83 30.192 59.9548 29.4984 60.6484L19.23 70.917C18.8832 71.2637 18.4288 71.437 17.9742 71.437Z" fill="#C547F6"/>
<path d="M70.4168 5.08353C70.0135 4.68041 69.4409 4.49497 68.879 4.58562C68.6726 4.61909 63.7504 5.4275 57.0431 7.99025C53.108 9.49344 49.3696 11.2937 45.931 13.3411C41.7086 15.8549 37.9289 18.7525 34.6904 21.954L21.279 24.565C20.9328 24.6323 20.6147 24.8016 20.3647 25.0503L8.21413 37.1619C7.66035 37.7137 7.53285 38.5623 7.89913 39.2526C8.21132 39.8404 8.81957 40.1956 9.4671 40.1956C9.57979 40.1956 9.69351 40.1849 9.80723 40.1631L23.5121 37.4947C22.6199 39.2452 21.7853 41.0623 21.0105 42.9457C20.7383 43.6087 20.8906 44.3701 21.3973 44.8772L24.7545 48.2345L21.6355 51.3536C20.9419 52.0471 20.9419 53.1714 21.6355 53.8648C21.9823 54.2116 22.4366 54.3851 22.8914 54.3851C23.3458 54.3851 23.8002 54.2116 24.1469 53.8651L27.266 50.746L30.6233 54.1034C30.9631 54.4427 31.4173 54.6236 31.8795 54.6236C32.1067 54.6236 32.3362 54.5798 32.5544 54.4899C34.438 53.7153 36.2552 52.8807 38.0052 51.9888L35.3375 65.6937C35.1882 66.4609 35.5578 67.2353 36.2477 67.6017C36.5108 67.7412 36.7964 67.8092 37.0801 67.8092C37.5411 67.8092 37.9968 67.6294 38.338 67.2868L50.4494 55.1364C50.6984 54.8867 50.8674 54.5682 50.9351 54.222L53.5455 40.8106C56.7469 37.5718 59.6449 33.7926 62.1589 29.5699C64.2059 26.1309 66.0064 22.3926 67.5099 18.4578C70.0721 11.7499 70.8809 6.82831 70.9142 6.62188C71.0049 6.05863 70.8194 5.48637 70.4168 5.08353ZM14.8493 35.5626L22.4889 27.9478L30.7083 26.3476C28.9257 28.5405 27.2719 30.9071 25.7539 33.4396L14.8493 35.5626ZM47.5517 53.0113L39.9372 60.6509L42.0599 49.7463C44.5932 48.2283 46.9592 46.5748 49.1519 44.7918L47.5517 53.0113ZM64.1586 17.2752C61.9166 23.1225 57.7827 31.5536 50.8239 38.5125C47.6203 41.7158 43.8901 44.5632 39.6779 47.0286C39.6026 47.0662 39.5294 47.1087 39.4603 47.1567C37.2057 48.4638 34.8134 49.6624 32.2906 50.7475L29.7776 48.2341L34.8504 43.1617C35.5437 42.4682 35.5437 41.3437 34.8504 40.6501C34.1568 39.9567 33.0324 39.9568 32.3388 40.6501L27.2661 45.7226L24.753 43.2092C25.8385 40.6861 27.0369 38.2936 28.3444 36.0385C28.392 35.9698 28.4336 35.8978 28.471 35.8233C30.9364 31.6104 33.784 27.8797 36.9881 24.6756C43.9467 17.717 52.3777 13.5832 58.225 11.3411C61.7778 9.97822 64.8364 9.12847 66.8584 8.64134C66.3711 10.6636 65.5213 13.7223 64.1586 17.2752Z" fill="#C547F6"/>
</svg>
