<svg width="75" height="76" viewBox="0 0 75 76" fill="none" xmlns="http://www.w3.org/2000/svg">
<g clip-path="url(#clip0_102_164)">
<path d="M28.5833 58.1875L6.85416 36.4792C6.51286 36.0806 6.33451 35.568 6.35476 35.0436C6.37502 34.5193 6.59238 34.0219 6.96341 33.6509C7.33444 33.2799 7.83181 33.0625 8.35614 33.0423C8.88046 33.022 9.39312 33.2004 9.79166 33.5417L28.5417 52.2917L65.1875 15.6875C65.586 15.3462 66.0987 15.1679 66.623 15.1881C67.1473 15.2084 67.6447 15.4257 68.0158 15.7967C68.3868 16.1678 68.6041 16.6652 68.6244 17.1895C68.6446 17.7138 68.4663 18.2265 68.125 18.625L28.5833 58.1875Z" fill="#1E5EFF"/>
</g>
<defs>
<clipPath id="clip0_102_164">
<rect width="75" height="75" fill="white" transform="translate(0 0.5)"/>
</clipPath>
</defs>
</svg>
